<svg xmlns="http://www.w3.org/2000/svg" xmlns:xlink="http://www.w3.org/1999/xlink" width="200px" height="200px" viewBox="0 0 200 200" version="1.1">
<g id="surface1">
<path style=" stroke:none;fill-rule:nonzero;fill:#4570ea;fill-opacity:1;" d="M 0 100 L 0 200 L 200 200 L 200 0 L 0 0 Z M 109.863281 19.316406 C 119.511719 20.566406 127.734375 23.027344 136.152344 27.246094 C 151.933594 35.117188 165.3125 48.984375 172.695312 65.136719 C 176.152344 72.675781 178.671875 81.621094 179.21875 88.320312 L 179.355469 89.84375 L 175.800781 89.84375 L 175.742188 91.054688 L 175.683594 92.285156 L 173.066406 92.402344 L 172.949219 91.660156 C 172.089844 86.660156 169.257812 77.96875 167.617188 75.292969 C 167.109375 74.453125 165.449219 72.65625 165.195312 72.65625 C 165.097656 72.65625 165.15625 72.890625 165.292969 73.183594 C 165.605469 73.789062 166.601562 77.832031 166.601562 78.476562 C 166.601562 78.90625 165.898438 79.277344 165.625 78.964844 C 165.546875 78.886719 165.15625 78.066406 164.746094 77.148438 C 163.4375 74.199219 159.042969 65.605469 157.402344 62.792969 C 153.90625 56.816406 151.132812 52.929688 148.242188 49.921875 C 144.53125 46.074219 141.386719 44.472656 137.5 44.453125 C 134.355469 44.433594 131.738281 45.566406 129.296875 48.007812 C 128.378906 48.945312 126.328125 51.757812 126.113281 52.402344 C 126.09375 52.5 125.292969 52.304688 124.335938 51.972656 C 123.398438 51.640625 122.460938 51.367188 122.265625 51.367188 C 121.582031 51.367188 121.679688 51.015625 122.8125 49.296875 C 125.46875 45.253906 128.535156 42.890625 132.265625 41.992188 C 135.273438 41.269531 138.769531 41.582031 141.757812 42.8125 C 144.433594 43.925781 148.613281 46.972656 150.605469 49.257812 C 152.578125 51.523438 152.597656 51.523438 151.738281 50.097656 C 150.15625 47.460938 149.335938 46.367188 147.480469 44.511719 C 143.789062 40.820312 140.273438 39.257812 135.644531 39.257812 C 128.554688 39.257812 122.929688 42.929688 118.925781 50.15625 C 117.734375 52.304688 116.425781 55.527344 116.40625 56.328125 C 116.40625 57.402344 118.496094 58.945312 122.734375 60.957031 C 126.210938 62.597656 131.738281 64.121094 133.046875 63.808594 C 133.574219 63.671875 133.691406 63.4375 134.882812 60.351562 C 136.699219 55.625 137.910156 54.277344 139.609375 55.15625 C 141.230469 55.996094 145.410156 61.5625 148.476562 66.992188 C 152.265625 73.652344 154.21875 78.75 155.175781 84.433594 C 155.996094 89.335938 156.09375 90.78125 156.191406 98.730469 C 156.289062 106.464844 156.289062 106.542969 156.738281 107.324219 C 156.992188 107.753906 157.597656 108.398438 158.085938 108.75 C 159.570312 109.824219 163.574219 111.621094 166.796875 112.695312 C 169.609375 113.613281 175.800781 115.234375 177.675781 115.527344 C 178.632812 115.683594 178.632812 115.527344 177.734375 119.042969 C 176.777344 122.65625 174.199219 129.6875 173.808594 129.6875 C 173.730469 129.6875 172.578125 128.75 171.25 127.578125 C 169.921875 126.425781 167.128906 124.042969 165.039062 122.285156 C 162.949219 120.507812 160.097656 118.085938 158.691406 116.894531 C 153.046875 112.070312 144.84375 105.234375 143.671875 104.394531 C 139.746094 101.601562 134.121094 100 126.074219 99.414062 C 121.738281 99.101562 44.628906 99.257812 42.480469 99.589844 C 31.699219 101.25 25.976562 104.824219 25.976562 109.882812 C 25.976562 110.488281 26.113281 111.484375 26.269531 112.109375 C 26.777344 114.042969 34.355469 135.546875 37.792969 144.824219 C 40.449219 151.972656 40.527344 152.226562 39.609375 151.054688 C 39.355469 150.742188 38.75 150.039062 38.261719 149.492188 C 35.703125 146.660156 31.972656 141.171875 29.511719 136.601562 C 24.257812 126.894531 21.152344 116.738281 20.117188 105.859375 C 19.863281 103.378906 19.804688 94.824219 20.019531 93.691406 L 20.15625 92.96875 L 152.929688 92.96875 L 152.929688 89.84375 L 112.988281 89.84375 L 110.371094 88.789062 C 108.945312 88.183594 107.714844 87.675781 107.65625 87.617188 C 107.617188 87.558594 108.007812 86.738281 108.535156 85.800781 C 114.550781 75.253906 116.035156 72.617188 115.957031 72.539062 C 115.917969 72.5 114.003906 72.714844 111.699219 73.027344 C 105.214844 73.90625 105.46875 73.886719 105.46875 73.535156 C 105.46875 73.300781 105.839844 71.445312 106.347656 69.238281 C 106.40625 68.90625 106.679688 68.789062 107.753906 68.613281 C 112.910156 67.714844 119.980469 64.101562 119.433594 62.65625 C 119.121094 61.855469 114.296875 59.316406 110.039062 57.714844 L 107.460938 56.738281 L 107.148438 54.882812 C 106.152344 49.316406 103.789062 41.894531 101.601562 37.5 C 101.171875 36.621094 100.898438 36.347656 100.136719 35.957031 C 99.238281 35.507812 99.160156 35.507812 97.011719 35.722656 C 95.820312 35.839844 93.59375 36.132812 92.089844 36.367188 L 89.355469 36.777344 L 87.421875 35.957031 C 82.832031 33.984375 77.832031 32.480469 76.640625 32.695312 C 76.289062 32.773438 75.703125 33.105469 75.332031 33.457031 C 73.320312 35.390625 68.984375 44.238281 66.875 50.683594 L 66.25 52.636719 L 65.292969 52.792969 C 59.121094 53.867188 57.246094 54.296875 54.492188 55.3125 C 51.660156 56.328125 51.503906 56.816406 53.378906 58.671875 C 55.507812 60.800781 58.066406 62.34375 62.5 64.160156 L 64.941406 65.175781 L 65.039062 67.109375 C 65.097656 68.164062 65.117188 69.101562 65.097656 69.179688 C 65.058594 69.238281 64.53125 69.179688 63.90625 69.042969 C 60.605469 68.28125 55.234375 67.167969 55.15625 67.246094 C 55.117188 67.285156 55.722656 68.710938 56.523438 70.429688 C 57.304688 72.128906 58.808594 75.371094 59.863281 77.636719 C 60.898438 79.882812 61.835938 81.933594 61.933594 82.167969 C 62.109375 82.65625 62.5 82.519531 57.910156 83.671875 C 52.441406 85.039062 43.164062 87.695312 38.867188 89.160156 L 36.816406 89.84375 L 20.449219 89.84375 L 20.585938 88.417969 C 20.957031 84.726562 22.460938 78.183594 24.042969 73.4375 C 26.308594 66.621094 29.453125 60.253906 33.359375 54.492188 C 40.507812 43.984375 49.316406 35.664062 59.570312 29.6875 C 70.488281 23.339844 81.835938 19.902344 95.214844 18.867188 C 97.792969 18.671875 107.050781 18.945312 109.863281 19.316406 Z M 123.300781 53.554688 C 124.238281 53.886719 125 54.21875 125 54.296875 C 125 54.375 124.863281 54.824219 124.707031 55.273438 C 124.550781 55.722656 124.414062 56.132812 124.414062 56.171875 C 124.414062 56.210938 124.921875 56.503906 125.546875 56.816406 C 127.011719 57.578125 129.179688 59.101562 130.488281 60.332031 L 131.542969 61.328125 L 130.273438 60.585938 C 127.792969 59.121094 122.363281 56.933594 120.214844 56.523438 C 119.824219 56.464844 119.453125 56.289062 119.414062 56.152344 C 119.355469 56.015625 119.628906 55.195312 120.039062 54.316406 C 120.664062 52.929688 120.820312 52.734375 121.171875 52.851562 C 121.40625 52.910156 122.34375 53.222656 123.300781 53.554688 Z M 73.535156 58.769531 C 75.644531 59.277344 77.695312 60.039062 79.6875 61.035156 C 81.71875 62.070312 84.238281 63.808594 84.121094 64.121094 C 84.082031 64.257812 83.535156 64.570312 82.890625 64.84375 C 81.875 65.273438 81.464844 65.332031 79.296875 65.332031 C 77.011719 65.332031 76.777344 65.292969 75.742188 64.785156 C 74.296875 64.082031 72.8125 62.441406 72.304688 60.957031 C 71.835938 59.667969 71.601562 58.398438 71.816406 58.398438 C 71.894531 58.398438 72.675781 58.574219 73.535156 58.769531 Z M 103.359375 62.304688 C 103.222656 64.335938 101.816406 66.269531 100.058594 66.914062 C 98.027344 67.636719 94.707031 66.835938 92.675781 65.15625 L 92.089844 64.667969 L 93.75 63.90625 C 95.9375 62.890625 98.28125 62.148438 100.683594 61.71875 C 103.398438 61.210938 103.4375 61.230469 103.359375 62.304688 Z M 160.898438 86.757812 C 161.5625 90.996094 161.914062 93.867188 161.914062 94.84375 C 161.914062 95.566406 161.816406 95.820312 161.425781 96.132812 C 160.429688 96.914062 159.824219 98.886719 159.746094 101.5625 L 159.726562 102.441406 L 159.570312 101.660156 C 159.492188 101.230469 159.375 99.199219 159.296875 97.128906 C 159.160156 93.320312 158.730469 87.96875 158.398438 85.839844 C 158.085938 83.925781 158.046875 83.984375 159.335938 83.984375 L 160.46875 83.984375 Z M 90.332031 107.324219 C 92.65625 107.714844 93.671875 108.027344 95.878906 109.101562 C 97.324219 109.804688 98.007812 110.292969 99.21875 111.484375 C 100.488281 112.734375 100.800781 113.164062 101.054688 114.042969 C 101.445312 115.371094 101.445312 116.09375 101.054688 117.246094 C 100.410156 119.140625 98.359375 120.761719 95.605469 121.523438 C 94.296875 121.875 93.535156 121.933594 91.015625 121.933594 C 88.359375 121.933594 87.753906 121.875 86.113281 121.425781 C 83.59375 120.742188 81.445312 119.726562 79.746094 118.4375 C 77.402344 116.640625 76.484375 115.117188 76.464844 112.96875 C 76.464844 111.777344 76.542969 111.464844 77.050781 110.625 C 77.714844 109.550781 79.199219 108.457031 80.683594 107.929688 C 83.105469 107.050781 87.167969 106.796875 90.332031 107.324219 Z M 73.808594 112.5 C 73.632812 113.203125 73.417969 113.574219 73.144531 113.671875 C 72.929688 113.75 71.660156 113.964844 70.332031 114.160156 C 65.898438 114.785156 62.207031 115.820312 58.867188 117.382812 C 57.03125 118.242188 54.375 119.863281 54.53125 120.019531 C 54.570312 120.078125 55.292969 119.882812 56.152344 119.609375 C 59.511719 118.554688 65.839844 117.558594 71.25 117.265625 L 73.652344 117.128906 L 73.222656 118.183594 C 72.324219 120.410156 72.1875 121.269531 72.1875 124.609375 C 72.167969 127.65625 72.207031 127.929688 72.734375 129.570312 C 74.199219 134.023438 77.734375 137.460938 82.5 139.042969 C 89.589844 141.386719 97.070312 139.21875 100.703125 133.769531 C 102.441406 131.152344 103.496094 127.734375 103.515625 124.746094 L 103.515625 123.242188 L 104.0625 123.359375 C 107.675781 124.199219 114.140625 126.347656 117.441406 127.8125 C 118.066406 128.085938 118.515625 128.222656 118.457031 128.125 C 118.222656 127.753906 115.078125 125.390625 113.554688 124.453125 C 111.582031 123.222656 107.792969 121.328125 105.859375 120.605469 C 105.058594 120.292969 104.296875 119.960938 104.179688 119.84375 C 104.0625 119.726562 103.90625 119.121094 103.828125 118.476562 L 103.710938 117.34375 L 104.238281 117.480469 C 105.429688 117.753906 110.3125 119.785156 112.382812 120.839844 C 118.046875 123.75 122.871094 127.910156 124.863281 131.621094 C 125.273438 132.382812 125.820312 133.828125 126.054688 134.824219 C 126.308594 135.839844 126.757812 137.089844 127.050781 137.597656 L 127.597656 138.515625 L 130.839844 138.4375 C 133.925781 138.378906 134.140625 138.359375 135.175781 137.832031 C 137.34375 136.777344 137.480469 136.308594 137.988281 127.636719 C 138.164062 124.726562 138.417969 120.429688 138.574219 118.085938 C 138.730469 115.722656 138.867188 113.574219 138.867188 113.300781 C 138.867188 113.046875 138.925781 112.871094 138.984375 112.929688 C 139.042969 112.988281 138.945312 116.816406 138.769531 121.40625 C 138.164062 136.933594 138.125 139.296875 138.378906 139.941406 C 138.632812 140.546875 139.648438 141.855469 143.75 146.796875 C 145.917969 149.433594 151.738281 156.542969 152.207031 157.167969 C 152.5 157.558594 152.167969 157.890625 147.949219 161.132812 C 141.699219 165.976562 134.257812 169.863281 126.308594 172.441406 C 121.035156 174.160156 123.242188 174.023438 99.882812 174.023438 L 79.160156 174.023438 L 76.445312 173.222656 C 71.738281 171.855469 64.84375 169.0625 61.132812 167.011719 L 59.667969 166.210938 L 89.316406 166.210938 C 110.390625 166.210938 119.082031 166.152344 119.375 165.996094 C 119.648438 165.839844 119.824219 165.839844 119.980469 165.996094 C 120.136719 166.152344 122.714844 166.210938 128.359375 166.210938 C 136.210938 166.210938 136.523438 166.191406 136.71875 165.839844 C 136.972656 165.332031 136.972656 164.980469 136.679688 165.15625 C 136.542969 165.234375 136.523438 165.214844 136.601562 165.058594 C 136.816406 164.707031 135.996094 163.535156 135.078125 162.890625 C 133.359375 161.71875 128.691406 159.960938 125.449219 159.277344 C 125.097656 159.199219 124.804688 159.101562 124.804688 159.042969 C 124.804688 159.003906 125.058594 158.222656 125.371094 157.34375 C 126.015625 155.527344 126.757812 152.304688 127.285156 149.121094 C 127.675781 146.679688 127.773438 140.46875 127.421875 139.667969 C 127.246094 139.257812 127.1875 139.375 127.089844 140.546875 C 126.835938 143.515625 125.644531 145.878906 123.164062 148.359375 C 120.175781 151.328125 116.152344 153.320312 109.960938 154.882812 C 92.832031 159.199219 69.121094 155.175781 55.957031 145.703125 C 54.003906 144.296875 51.035156 141.523438 49.882812 140.019531 C 48.710938 138.476562 47.578125 136.328125 47.050781 134.589844 C 46.699219 133.417969 46.640625 132.832031 46.71875 131.269531 C 46.855469 128.613281 47.089844 128.28125 47.539062 130.214844 C 49.101562 136.816406 54.257812 142.34375 62.949219 146.757812 C 74.609375 152.65625 90.761719 155.175781 104.238281 153.203125 C 109.355469 152.460938 115.429688 150.546875 118.828125 148.574219 C 121.230469 147.226562 124.0625 144.414062 125 142.519531 C 125.664062 141.171875 125.722656 140.585938 125.097656 141.542969 C 124.394531 142.617188 122.558594 144.355469 121.210938 145.253906 C 117.929688 147.402344 112.792969 149.199219 106.992188 150.195312 C 100.234375 151.347656 89.804688 151.171875 82.226562 149.804688 C 69.6875 147.539062 57.480469 141.777344 52.519531 135.839844 C 49.316406 131.972656 48.007812 128.183594 48.710938 124.804688 C 49.902344 119.101562 55.898438 114.746094 65.527344 112.597656 C 68.261719 111.992188 73.632812 111.269531 74.003906 111.464844 C 74.042969 111.484375 73.945312 111.953125 73.808594 112.5 Z M 77.636719 120.214844 C 79.941406 122.167969 82.128906 123.261719 85.566406 124.160156 C 87.402344 124.648438 87.929688 124.6875 91.015625 124.6875 C 93.945312 124.6875 94.667969 124.628906 96.015625 124.277344 C 97.988281 123.730469 98.828125 123.378906 100.136719 122.539062 C 100.703125 122.167969 101.210938 121.875 101.25 121.875 C 101.289062 121.875 101.269531 122.285156 101.210938 122.792969 C 101.113281 123.867188 100.839844 124.140625 98.925781 125.097656 C 95.292969 126.914062 89.785156 127.246094 84.824219 125.957031 C 82.96875 125.46875 80.839844 124.589844 79.609375 123.828125 C 79.101562 123.496094 78.652344 123.242188 78.613281 123.242188 C 78.339844 123.242188 78.046875 125.253906 78.046875 127.34375 C 78.027344 129.394531 78.105469 130 78.476562 131.074219 C 78.945312 132.441406 79.785156 133.925781 80.644531 134.84375 L 81.152344 135.410156 L 80.273438 134.941406 C 79.101562 134.316406 77.109375 132.324219 76.5625 131.25 C 75 128.164062 74.765625 124.414062 75.917969 120.253906 C 76.09375 119.648438 76.25 119.140625 76.308594 119.140625 C 76.347656 119.140625 76.953125 119.628906 77.636719 120.214844 Z M 46.367188 137.675781 C 47.226562 139.84375 49.6875 143.320312 51.582031 145.019531 C 60.722656 153.183594 74.765625 158.28125 90.507812 159.179688 C 100.273438 159.746094 109.960938 158.300781 117.480469 155.175781 C 118.339844 154.824219 119.667969 154.277344 120.449219 153.984375 C 121.210938 153.671875 121.796875 153.359375 121.757812 153.28125 C 121.699219 153.183594 121.777344 153.125 121.933594 153.125 C 122.089844 153.125 122.324219 153.007812 122.460938 152.851562 C 122.578125 152.695312 122.832031 152.617188 122.988281 152.675781 C 123.203125 152.753906 123.261719 152.714844 123.164062 152.578125 C 123.066406 152.421875 123.125 152.382812 123.359375 152.480469 C 123.652344 152.578125 123.652344 152.617188 123.359375 152.773438 C 123.183594 152.871094 123.046875 153.046875 123.046875 153.144531 C 123.046875 153.417969 122.792969 153.652344 121.09375 154.941406 C 120.292969 155.546875 119.550781 156.035156 119.433594 155.996094 C 119.335938 155.957031 119.121094 156.054688 118.984375 156.230469 C 118.828125 156.40625 118.789062 156.425781 118.847656 156.289062 C 118.925781 156.132812 118.554688 156.328125 118.046875 156.699219 C 115.175781 158.730469 109.667969 160.46875 103.222656 161.367188 C 100.546875 161.71875 99.199219 161.796875 93.945312 161.796875 C 87.460938 161.816406 86.738281 161.757812 80.683594 160.722656 C 66.386719 158.300781 54.921875 152.753906 48.984375 145.410156 C 46.816406 142.714844 45.800781 140.390625 45.566406 137.519531 C 45.410156 135.761719 45.625 135.800781 46.367188 137.675781 Z M 43.652344 139.589844 C 43.359375 141.5625 43.496094 147.988281 43.867188 149.414062 C 44.160156 150.488281 43.613281 149.453125 42.050781 145.957031 C 40.253906 141.933594 40.058594 141.015625 40.878906 140.292969 C 41.367188 139.84375 42.03125 139.472656 42.753906 139.238281 C 43.632812 138.984375 43.75 139.023438 43.652344 139.589844 Z M 46.09375 144.335938 C 46.796875 145.742188 49.0625 148.613281 50.605469 150.117188 C 55.039062 154.355469 60.917969 157.675781 68.671875 160.332031 C 71.582031 161.308594 77.03125 162.714844 80.175781 163.261719 C 84.785156 164.0625 84.550781 164.023438 83.789062 164.042969 C 82.597656 164.082031 75.195312 162.929688 72.65625 162.304688 C 67.539062 161.054688 61.972656 159.023438 58.203125 156.992188 C 52.558594 153.984375 47.753906 149.511719 45.957031 145.585938 C 45.507812 144.589844 44.726562 141.992188 44.746094 141.503906 C 44.746094 141.386719 44.941406 141.796875 45.195312 142.382812 C 45.429688 142.96875 45.839844 143.847656 46.09375 144.335938 Z M 47.246094 150.878906 C 48.769531 152.929688 50.566406 154.824219 52.597656 156.484375 C 55.527344 158.90625 55.703125 159.082031 54.199219 158.183594 C 51.972656 156.875 50.371094 155.585938 48.613281 153.769531 C 46.757812 151.816406 45.878906 150.449219 45.214844 148.496094 C 44.414062 146.132812 44.492188 145.957031 45.449219 147.851562 C 45.957031 148.867188 46.777344 150.234375 47.246094 150.878906 Z M 136.289062 165.136719 C 136.230469 165.195312 136.113281 165.097656 136.054688 164.902344 C 135.9375 164.628906 135.957031 164.609375 136.152344 164.785156 C 136.289062 164.921875 136.347656 165.078125 136.289062 165.136719 Z M 136.523438 165.527344 C 136.523438 165.566406 136.40625 165.683594 136.269531 165.800781 C 136.074219 165.957031 135.996094 165.9375 135.996094 165.761719 C 135.996094 165.605469 136.113281 165.488281 136.269531 165.488281 C 136.40625 165.488281 136.523438 165.507812 136.523438 165.527344 Z M 136.523438 165.527344 "/>
<path style=" stroke:none;fill-rule:nonzero;fill:#4570ea;fill-opacity:1;" d="M 120.859375 66.582031 C 119.804688 67.8125 119.082031 69.453125 119.21875 70.292969 C 119.355469 71.152344 119.960938 71.679688 120.820312 71.679688 C 122.480469 71.679688 123.007812 69.589844 122.109375 66.523438 C 121.875 65.683594 121.621094 65.703125 120.859375 66.582031 Z M 120.859375 66.582031 "/>
<path style=" stroke:none;fill-rule:nonzero;fill:#4570ea;fill-opacity:1;" d="M 129.394531 66.679688 C 128.300781 69.277344 128.4375 71.347656 129.707031 71.894531 C 130.878906 72.363281 131.972656 71.308594 131.777344 69.863281 C 131.660156 68.945312 130.3125 66.191406 129.921875 66.054688 C 129.785156 66.015625 129.550781 66.289062 129.394531 66.679688 Z M 129.394531 66.679688 "/>
<path style=" stroke:none;fill-rule:nonzero;fill:#4570ea;fill-opacity:1;" d="M 119.003906 75.097656 C 116.855469 77.675781 116.796875 80.273438 118.867188 80.273438 C 119.765625 80.273438 120.234375 80 120.625 79.257812 C 121.113281 78.300781 120.722656 75.761719 119.960938 74.785156 L 119.609375 74.355469 Z M 119.003906 75.097656 "/>
<path style=" stroke:none;fill-rule:nonzero;fill:#4570ea;fill-opacity:1;" d="M 130.703125 74.863281 C 129.6875 76.074219 129.160156 78.75 129.785156 79.609375 C 130.898438 81.210938 133.28125 80.117188 132.910156 78.183594 C 132.65625 76.835938 131.503906 74.609375 131.054688 74.609375 C 130.976562 74.609375 130.820312 74.726562 130.703125 74.863281 Z M 130.703125 74.863281 "/>
<path style=" stroke:none;fill-rule:nonzero;fill:#4570ea;fill-opacity:1;" d="M 117.050781 83.496094 C 115.449219 84.628906 115.449219 87.148438 117.070312 87.695312 C 117.910156 87.96875 118.945312 87.597656 119.433594 86.835938 C 119.882812 86.171875 119.746094 84.550781 119.199219 83.828125 C 118.730469 83.203125 117.695312 83.046875 117.050781 83.496094 Z M 117.050781 83.496094 "/>
<path style=" stroke:none;fill-rule:nonzero;fill:#4570ea;fill-opacity:1;" d="M 130.859375 83.59375 C 129.667969 84.785156 129.882812 87.128906 131.230469 87.695312 C 132.519531 88.222656 133.984375 87.265625 133.984375 85.898438 C 133.984375 83.925781 131.992188 82.460938 130.859375 83.59375 Z M 130.859375 83.59375 "/>
<path style=" stroke:none;fill-rule:nonzero;fill:#4570ea;fill-opacity:1;" d="M 83.359375 109.882812 C 80.585938 110.546875 79.101562 111.894531 79.101562 113.710938 L 79.101562 114.296875 L 79.785156 113.691406 C 80.722656 112.871094 81.40625 112.539062 82.851562 112.226562 C 84.882812 111.757812 86.542969 111.660156 88.496094 111.894531 C 91.035156 112.207031 92.402344 112.597656 94.316406 113.515625 C 96.054688 114.355469 98.046875 116.054688 98.046875 116.738281 C 98.046875 117.03125 98.085938 117.050781 98.242188 116.796875 C 98.339844 116.640625 98.4375 116.210938 98.4375 115.859375 C 98.4375 113.300781 95.253906 110.859375 90.566406 109.863281 C 88.886719 109.492188 84.863281 109.511719 83.359375 109.882812 Z M 83.359375 109.882812 "/>
</g>
</svg>